<?xml version="1.0" encoding="UTF-8"?>
<svg id="Layer_1" data-name="Layer 1" xmlns="http://www.w3.org/2000/svg" viewBox="0 0 1200 1200">
  <defs>
    <style>
      .cls-1 {
        fill: #012941;
        stroke-width: 0px;
      }
    </style>
  </defs>
  <g>
    <path class="cls-1" d="m526.04,397.06c-4.4-4.4-12.08-1.62-12.4,4.59,0,.15-.01.3-.01.45v98.41c0,8.84,7.16,16,16,16h93.85c2.71,0,5.86-1.96,8.09-4.54,2.47-2.85,2.23-7.15-.43-9.81-16.52-16.52-67.03-5.08-83.54-21.6-18.52-18.52-3.04-64.99-21.56-83.51Z"/>
    <path class="cls-1" d="m668.45,513.42c6.35,6.35,17.44,2.34,17.9-6.63.01-.21.02-.43.02-.65v-142.06c0-12.76-10.34-23.1-23.1-23.1h-135.47c-3.92,0-8.46,2.83-11.68,6.55-3.56,4.11-3.22,10.32.63,14.17,23.84,23.84,96.75,7.33,120.59,31.18,26.73,26.73,4.39,93.81,31.12,120.54Z"/>
  </g>
  <g>
    <g>
      <path class="cls-1" d="m389.25,783.58c0,16.52-10.1,26.78-26.3,26.78h-57.25c-15.23,0-25.18-10.26-25.18-26.78v-21.97l7.54-9.46v30.15c0,14.27,6.57,21.33,19.88,21.33h54.2c13.15,0,19.72-7.06,19.72-21.33v-52.19l7.38-2.25v55.72Zm-33.51-21.49h-45.06l4.97-5.13h7.86v-5.13c0-11.39,6.9-19.88,18.28-19.88,4.33,0,8.02,1.6,11.38,4.81l-4.33,4.33c-2.41-2.41-5.13-3.69-8.34-3.69-6.9,0-11.06,5.45-11.06,12.67v6.9h26.3v5.13Z"/>
      <path class="cls-1" d="m495.89,810.36h-8.34c-10.26,0-17.64-4.01-22.29-11.87-4.49,7.86-11.06,11.87-19.88,11.87h-42.33l3.37-6.73h17.64v-65.18l7.54-2.57v67.75h9.94c13.15,0,19.72-7.06,19.72-21.33v-52.19l7.7-2.25v55.24c0,13.63,6.57,20.53,19.88,20.53h7.06v6.73Z"/>
      <path class="cls-1" d="m520.58,810.36h-29.83v-6.73h29.83v6.73Z"/>
      <path class="cls-1" d="m546.56,810.36h-29.83v-6.73h29.83v6.73Z"/>
      <path class="cls-1" d="m572.53,810.36h-29.83v-6.73h29.83v6.73Z"/>
      <path class="cls-1" d="m598.51,810.36h-29.83v-6.73h29.83v6.73Z"/>
      <path class="cls-1" d="m624.49,810.36h-29.83v-6.73h29.83v6.73Z"/>
      <path class="cls-1" d="m650.47,810.36h-29.83v-6.73h29.83v6.73Z"/>
      <path class="cls-1" d="m676.44,810.36h-29.83v-6.73h29.83v6.73Z"/>
      <path class="cls-1" d="m712.79,810.36v-6.73h-40.19v6.73"/>
      <path class="cls-1" d="m738.77,810.36h-29.83v-6.73h29.83v6.73Z"/>
      <path class="cls-1" d="m795.21,810.36h-8.18c-10.26,0-17.64-4.01-22.29-11.87-4.49,7.86-12.19,11.87-22.93,11.87h-8.18v-6.73h7.38c13.15,0,19.72-7.06,19.72-21.33v-43.85l7.54-2.57v47.22c0,13.63,6.57,20.53,19.88,20.53h7.06v6.73Zm-34.96-87.41c0,3.53-1.6,5.29-4.97,5.29s-5.13-1.76-5.13-5.29,1.76-5.13,5.13-5.13,4.97,1.76,4.97,5.13Zm18.12,0c0,3.53-1.6,5.29-4.97,5.29s-5.13-1.76-5.13-5.29,1.76-5.13,5.13-5.13,4.97,1.76,4.97,5.13Z"/>
      <path class="cls-1" d="m819.58,810.36h-29.83v-6.73h29.83v6.73Z"/>
      <path class="cls-1" d="m896.07,775.89c0,22.93-8.98,34.48-27.1,34.48-10.42,0-18.12-4.33-22.77-12.83-1.44,4.33-4.81,7.7-9.94,10.1-4.17,1.76-8.66,2.73-13.31,2.73h-7.7v-6.73h6.73c13.31,0,20.04-7.06,20.04-21.33,0-.64,0-1.76-.16-3.21v-3.21c0-23.09,8.98-34.64,27.1-34.64s27.1,11.55,27.1,34.64Zm-7.54,0c0-18.6-6.57-27.9-19.56-27.9s-19.72,9.3-19.72,27.9,6.57,27.74,19.72,27.74,19.56-9.3,19.56-27.74Z"/>
      <path class="cls-1" d="m919.48,810.36h-7.54v-80.25l7.54-2.25v82.5Z"/>
    </g>
    <g>
      <path class="cls-1" d="m332.72,618.11c0,.91-.74,1.65-1.65,1.65h-24.99c-12.84,0-17.55,4.83-17.55,17.55v6.72c0,.91.74,1.65,1.65,1.65h40.9c.91,0,1.65.74,1.65,1.65v4.36c0,.91-.74,1.65-1.65,1.65h-40.9c-.91,0-1.65.74-1.65,1.65v14.49c0,12.72,4.71,17.44,17.55,17.44h24.99c.91,0,1.65.74,1.65,1.65v4.36c0,.91-.74,1.65-1.65,1.65h-22.52c-21.32,0-28.04-6.72-28.04-28.04v-26.39c0-21.32,6.72-28.04,28.04-28.04h22.52c.91,0,1.65.74,1.65,1.65v4.36Z"/>
      <path class="cls-1" d="m410.19,660.87l16.85-40.17c2.95-6.95,8.25-8.37,14.14-8.6h6.36c.91,0,1.65.74,1.65,1.65v79.17c0,.91-.74,1.65-1.65,1.65h-4.72c-.91,0-1.65-.74-1.65-1.65v-71.09c0-1.08-1.02-1.88-2.06-1.6-3.51.97-5.38,3.82-8.78,12.01l-17.44,42.77c-4.01,9.78-8.01,19.56-17.2,19.56s-13.2-9.78-17.2-19.56l-17.67-43.36c-3-7.29-4.89-10.1-8.49-11.21-1.05-.33-2.11.48-2.11,1.58v70.89c0,.91-.74,1.65-1.65,1.65h-4.72c-.91,0-1.65-.74-1.65-1.65v-79.17c0-.91.74-1.65,1.65-1.65h6.36c5.89.24,11.19,1.65,14.14,8.6l16.85,40.17c5.54,13.2,10.37,26.27,14.49,26.27s8.6-12.14,14.49-26.27Z"/>
      <path class="cls-1" d="m489.71,619.76h-29.46c-.91,0-1.65-.74-1.65-1.65v-4.36c0-.91.74-1.65,1.65-1.65h70.34c.91,0,1.65.74,1.65,1.65v4.36c0,.91-.74,1.65-1.65,1.65h-29.57c-.91,0-1.65.74-1.65,1.65v71.52c0,.91-.74,1.65-1.65,1.65h-4.72c-.91,0-1.65-.74-1.65-1.65v-71.52c0-.91-.74-1.65-1.65-1.65Z"/>
      <path class="cls-1" d="m614.07,612.1c.91,0,1.65.74,1.65,1.65v59.26c0,11.55,2.36,13.9,14.02,13.9h46.66c.91,0,1.65.74,1.65,1.65v4.36c0,.91-.74,1.65-1.65,1.65h-44.18c-21.32,0-24.51-3.18-24.51-24.51v-56.32c0-.91.74-1.65,1.65-1.65h4.72Z"/>
      <path class="cls-1" d="m689.1,694.57c-.91,0-1.65-.74-1.65-1.65v-52.78c0-21.32,6.72-28.04,28.04-28.04h16.44c21.32,0,28.04,6.72,28.04,28.04v52.78c0,.91-.74,1.65-1.65,1.65h-4.72c-.91,0-1.65-.74-1.65-1.65v-26.16c0-.91-.74-1.65-1.65-1.65h-53.2c-.91,0-1.65.74-1.65,1.65v26.16c0,.91-.74,1.65-1.65,1.65h-4.72Zm61.21-37.11c.91,0,1.65-.74,1.65-1.65v-18.5c0-12.84-4.71-17.55-17.44-17.55h-21.51c-12.72,0-17.55,4.71-17.55,17.55v18.5c0,.91.74,1.65,1.65,1.65h53.2Z"/>
      <path class="cls-1" d="m771.06,694.51c-.91,0-1.65-.74-1.65-1.65v-52.78c0-21.32,6.72-28.04,28.04-28.04h16.44c21.32,0,28.04,6.72,28.04,28.04v52.78c0,.91-.74,1.65-1.65,1.65h-4.72c-.91,0-1.65-.74-1.65-1.65v-26.16c0-.91-.74-1.65-1.65-1.65h-53.2c-.91,0-1.65.74-1.65,1.65v26.16c0,.91-.74,1.65-1.65,1.65h-4.72Zm61.21-37.11c.91,0,1.65-.74,1.65-1.65v-18.5c0-12.84-4.71-17.55-17.44-17.55h-21.51c-12.72,0-17.55,4.71-17.55,17.55v18.5c0,.91.74,1.65,1.65,1.65h53.2Z"/>
      <path class="cls-1" d="m859.38,657.48v35.44c0,.91-.74,1.65-1.65,1.65h-4.72c-.91,0-1.65-.74-1.65-1.65v-79.17c0-.91.74-1.65,1.65-1.65h4.72c.91,0,1.65.74,1.65,1.65v29.03c0,1.37,1.58,2.14,2.66,1.3l40.72-31.64c.29-.22.64-.35,1.01-.35h6.22c1.56,0,2.25,1.98,1.02,2.94l-42.82,33.71c-.83.66-.84,1.92-.01,2.58l50.32,40.3c1.22.97.53,2.93-1.03,2.93h-7.1c-.38,0-.74-.13-1.03-.36l-47.29-38.01c-1.08-.87-2.68-.1-2.68,1.28Z"/>
      <path class="cls-1" d="m593.14,618.11c0,.91-.74,1.65-1.65,1.65h-24.99c-12.84,0-17.55,4.83-17.55,17.55v6.72c0,.91.74,1.65,1.65,1.65h40.9c.91,0,1.65.74,1.65,1.65v4.36c0,.91-.74,1.65-1.65,1.65h-40.9c-.91,0-1.65.74-1.65,1.65v14.49c0,12.72,4.71,17.44,17.55,17.44h24.99c.91,0,1.65.74,1.65,1.65v4.36c0,.91-.74,1.65-1.65,1.65h-22.52c-21.32,0-28.04-6.72-28.04-28.04v-26.39c0-21.32,6.72-28.04,28.04-28.04h22.52c.91,0,1.65.74,1.65,1.65v4.36Z"/>
    </g>
  </g>
  <g>
    <g>
      <path class="cls-1" d="m679.22,853.37h-1.2c-1.92,0-3.22-.77-3.94-2.29-.67,1.52-1.97,2.29-3.96,2.29-2.95,0-4.44-2.05-4.44-6.12,0-2.21.51-3.83,1.54-4.87.72-.72,1.68-1.06,2.9-1.06h4.79v7.4c0,2.37,1.09,3.54,3.3,3.54h.98l.03,1.12Zm-5.56-6.12v-4.98h-3.35c-2.26,0-3.38,1.65-3.38,4.98s1.12,5,3.38,5,3.35-1.68,3.35-5Zm-3.43-10.24c0,.59-.29.88-.85.88s-.82-.29-.82-.88c0-.53.27-.8.82-.8s.85.27.85.8Zm3.01,0c0,.59-.29.88-.85.88s-.82-.29-.82-.88c0-.53.27-.8.82-.8s.85.27.85.8Z"/>
      <path class="cls-1" d="m683.37,853.37h-4.95v-1.12h4.95v1.12Z"/>
      <path class="cls-1" d="m687.68,853.37h-4.95v-1.12h4.95v1.12Z"/>
      <path class="cls-1" d="m692.78,848.93c0,2.63-1.7,4.44-4.39,4.44h-1.76v-1.12h1.6c2.21,0,3.3-1.17,3.3-3.54v-6.97l1.25-.42v7.61Zm-3.64,8.7c0,.59-.29.88-.85.88s-.82-.29-.82-.88c0-.53.27-.8.82-.8s.85.27.85.8Zm3.01,0c0,.59-.29.88-.85.88s-.83-.29-.83-.88c0-.53.27-.8.83-.8s.85.27.85.8Z"/>
      <path class="cls-1" d="m701.33,852.49c0,1.84-.43,3.27-1.28,4.34-.9,1.12-2.18,1.68-3.86,1.68-.85,0-1.65-.16-2.39-.51l-.53-1.22c.9.43,1.89.64,2.93.64,1.3,0,2.29-.51,2.95-1.52.61-.85.93-1.97.93-3.35v-10.83l1.25-.4v11.17Z"/>
      <path class="cls-1" d="m709.6,853.37h-2.79c-1.89,0-2.85-1.04-2.85-3.09v-13.7l1.25-.43v14.1c0,1.33.61,2,1.84,2h2.55v1.12Z"/>
      <path class="cls-1" d="m713.91,853.37h-4.95v-1.12h4.95v1.12Z"/>
      <path class="cls-1" d="m718.22,853.37h-4.95v-1.12h4.95v1.12Z"/>
      <path class="cls-1" d="m722.53,853.37h-4.95v-1.12h4.95v1.12Z"/>
      <path class="cls-1" d="m726.84,853.37h-4.95v-1.12h4.95v1.12Z"/>
      <path class="cls-1" d="m731.15,853.37h-4.95v-1.12h4.95v1.12Z"/>
      <path class="cls-1" d="m735.46,853.37h-4.95v-1.12h4.95v1.12Z"/>
      <path class="cls-1" d="m747.73,853.37h-3.35c-.56,0-1.33-.16-2.31-.51-.67.35-1.44.51-2.29.51h-4.9v-1.12c3.51.08,5.43,0,5.72-.24-2.82-1.73-4.12-3.99-3.94-6.76.08-1.2.53-2.16,1.3-2.85.88-.77,2.05-1.12,3.54-1.09,1.6.05,2.85.61,3.75,1.65.77.93,1.17,2.13,1.17,3.54,0,1.12-.27,2.18-.77,3.17-.53,1.04-1.25,1.84-2.18,2.34.24.24,1.65.32,4.26.24v1.12Zm-5.61-1.7c.96-.35,1.73-.98,2.29-1.94.56-.96.85-2,.85-3.09s-.29-2.13-.9-2.9c-.72-.85-1.73-1.33-3.03-1.41-2.13-.11-3.59,1.3-3.59,3.46,0,1.12.35,2.21,1.06,3.27.82,1.22,1.94,2.1,3.33,2.61Zm-1.41-14.66c0,.59-.29.88-.88.88-.53,0-.8-.29-.8-.88,0-.53.27-.8.8-.8.59,0,.88.27.88.8Zm3.01,0c0,.59-.29.88-.85.88s-.83-.29-.83-.88c0-.53.27-.8.83-.8s.85.27.85.8Z"/>
      <path class="cls-1" d="m762.07,853.37h-14.87v-1.12h3.75v-5.77c0-1.49.43-2.71,1.25-3.7.85-.98,2.02-1.46,3.51-1.46,1.09,0,2.05.37,2.85,1.14l-.93.9c-.45-.61-1.2-.93-2.24-.93-1.94,0-3.17,1.57-3.17,3.62v6.2h9.84v1.12Z"/>
      <path class="cls-1" d="m767.25,848.93c0,2.63-1.7,4.44-4.39,4.44h-1.76v-1.12h1.6c2.21,0,3.3-1.17,3.3-3.54v-12.13l1.25-.37v12.72Z"/>
      <path class="cls-1" d="m771.14,853.37h-1.25v-16.79l1.25-.37v17.16Z"/>
      <path class="cls-1" d="m808.55,853.37h-17.27c0,3.62-2.05,5.13-6.52,5.13-2.47,0-4.23-.67-5.29-2.02-.93-1.14-1.49-3.03-1.68-5.67-.05-.37-.08-1.01-.05-1.94l1.25-.4v1.86c0,4.82,1.65,6.94,5.83,6.94,1.7,0,2.93-.19,3.64-.59,1.04-.56,1.57-1.68,1.57-3.3v-9.13l1.25-.4v4.92c.29-.98.75-1.94,1.33-2.87,1.62-2.63,3.8-3.99,6.6-4.07,2.34-.08,4.1.93,5.29,2.98.77,1.33,1.14,3.14,1.14,5.43,0,.51-.03,1.2-.05,2.02h2.95v1.09Zm-4.28-1.12c.11-.67.16-1.3.16-1.94,0-1.89-.37-3.57-1.14-4.98-.96-1.49-2.31-2.24-4.04-2.24-2.21,0-4.15,1.2-5.85,3.59-1.17,1.65-1.86,3.17-2.1,4.55v1.01h12.98Z"/>
      <path class="cls-1" d="m812.88,853.37h-4.95v-1.12h4.95v1.12Z"/>
      <path class="cls-1" d="m817.19,853.37h-4.95v-1.12h4.95v1.12Z"/>
      <path class="cls-1" d="m821.5,853.37h-4.95v-1.12h4.95v1.12Z"/>
      <path class="cls-1" d="m825.81,853.37h-4.95v-1.12h4.95v1.12Z"/>
      <path class="cls-1" d="m847.52,853.37h-22.46v-1.12h3.96v-7.98l1.25-.43v4.87c.29-.93.74-1.86,1.3-2.79,1.62-2.63,3.8-3.99,6.6-4.07,2.34-.08,4.1.93,5.29,2.98.77,1.33,1.14,3.14,1.14,5.43,0,.51-.03,1.2-.05,2.02h2.95v1.09Zm-4.28-1.12c.11-.67.16-1.3.16-1.94,0-1.89-.37-3.57-1.14-4.98-.96-1.49-2.31-2.24-4.04-2.24-2.21,0-4.15,1.2-5.85,3.59-1.14,1.6-1.84,3.06-2.08,4.42v1.14h12.96Z"/>
      <path class="cls-1" d="m851.72,853.37h-4.95v-1.12h4.95v1.12Z"/>
      <path class="cls-1" d="m868.86,853.37h-17.99v-1.12h12.56v-2c0-2.42-.21-4.15-.64-5.19-.67-1.7-2.02-2.55-4.07-2.55-1.41,0-2.79.64-4.1,1.89l-.88-.88c1.54-1.46,3.19-2.21,4.98-2.21,2.5,0,4.2.93,5.08,2.82.61,1.3.93,3.33.93,6.12v2h4.12v1.12Z"/>
      <path class="cls-1" d="m878.09,853.37h-1.36c-1.7,0-2.93-.67-3.7-1.97-.74,1.3-2.02,1.97-3.8,1.97h-1.36v-1.12h1.22c2.18,0,3.27-1.17,3.27-3.54v-12.13l1.25-.37v12.64c0,2.26,1.09,3.41,3.3,3.41h1.17v1.12Z"/>
      <path class="cls-1" d="m882.93,848.93c0,2.63-1.7,4.44-4.39,4.44h-1.76v-1.12h1.6c2.21,0,3.3-1.17,3.3-3.54v-12.13l1.25-.37v12.72Z"/>
    </g>
    <rect class="cls-1" x="652.24" y="835.65" width="1.04" height="23.37"/>
    <g>
      <path class="cls-1" d="m317.07,838.02h11.12c4.82,0,6.33,1.52,6.33,4.47v1.68c0,2.95-1.52,4.47-6.33,4.47h-9.31v8.01h-1.81v-18.62Zm11.68,8.89c2.9,0,3.96-1.06,3.96-3.14v-.85c0-2.08-1.06-3.17-3.96-3.17h-9.87v7.16h9.87Z"/>
      <path class="cls-1" d="m336.91,838.02h11.12c4.82,0,6.33,1.52,6.33,3.67v1.94c0,2.16-1.52,3.67-6.33,3.67h-1.12l7.45,9.34h-2.26l-7.45-9.34h-5.93v9.34h-1.81v-18.62Zm11.68,7.56c2.9,0,3.96-1.06,3.96-2.34v-1.12c0-1.28-1.06-2.37-3.96-2.37h-9.87v5.83h9.87Z"/>
      <path class="cls-1" d="m356.5,844.35c0-4.82,1.52-6.33,6.33-6.33h7.61c4.82,0,6.33,1.52,6.33,6.33v5.96c0,4.82-1.52,6.33-6.33,6.33h-7.61c-4.82,0-6.33-1.52-6.33-6.33v-5.96Zm18.47-.64c0-2.87-1.06-3.96-3.94-3.96h-8.75c-2.9,0-3.96,1.09-3.96,3.96v7.26c0,2.87,1.06,3.94,3.96,3.94h8.75c2.87,0,3.94-1.06,3.94-3.94v-7.26Z"/>
      <path class="cls-1" d="m379.7,838.02h11.12c4.82,0,6.33,1.52,6.33,4.47v1.68c0,2.95-1.52,4.47-6.33,4.47h-9.31v8.01h-1.81v-18.62Zm11.68,8.89c2.9,0,3.96-1.06,3.96-3.14v-.85c0-2.08-1.06-3.17-3.96-3.17h-9.87v7.16h9.87Z"/>
      <path class="cls-1" d="m415.69,839.75h-10.64c-2.9,0-3.96,1.09-3.96,3.96v1.89h11.68v1.73h-11.68v3.65c0,2.87,1.06,3.94,3.96,3.94h10.91v1.73h-10.35c-4.82,0-6.33-1.52-6.33-6.33v-5.96c0-4.82,1.52-6.33,6.33-6.33h10.08v1.73Z"/>
      <path class="cls-1" d="m418.35,838.02h11.12c4.82,0,6.33,1.52,6.33,3.67v1.94c0,2.16-1.52,3.67-6.33,3.67h-1.12l7.45,9.34h-2.26l-7.45-9.34h-5.93v9.34h-1.81v-18.62Zm11.68,7.56c2.9,0,3.96-1.06,3.96-2.34v-1.12c0-1.28-1.06-2.37-3.96-2.37h-9.87v5.83h9.87Z"/>
      <path class="cls-1" d="m444.53,839.75h-7.4v-1.73h16.63v1.73h-7.42v16.9h-1.81v-16.9Z"/>
      <path class="cls-1" d="m470.61,838.02h2.29l-8.25,11.55v7.08h-1.81v-6.94l-8.27-11.68h2.32l6.81,9.87,6.92-9.87Z"/>
      <path class="cls-1" d="m495.96,839.75h-8.78c-2.9,0-3.96,1.09-3.96,3.96v2.69h10.35v1.73h-10.35v8.51h-1.81v-12.29c0-4.82,1.52-6.33,6.33-6.33h8.22v1.73Z"/>
      <path class="cls-1" d="m497.82,838.02h11.12c4.82,0,6.33,1.52,6.33,3.67v1.94c0,2.16-1.52,3.67-6.33,3.67h-1.12l7.45,9.34h-2.26l-7.45-9.34h-5.93v9.34h-1.81v-18.62Zm11.68,7.56c2.9,0,3.96-1.06,3.96-2.34v-1.12c0-1.28-1.06-2.37-3.96-2.37h-9.87v5.83h9.87Z"/>
      <path class="cls-1" d="m517.94,856.64v-12.29c0-4.82,1.52-6.33,6.33-6.33h5.4c4.82,0,6.33,1.52,6.33,6.33v12.29h-1.81v-6.65h-14.45v6.65h-1.81Zm16.26-8.38v-4.55c0-2.9-1.06-3.96-3.94-3.96h-6.55c-2.87,0-3.96,1.06-3.96,3.96v4.55h14.45Z"/>
      <path class="cls-1" d="m555.08,839.75h-10.64c-2.9,0-3.96,1.09-3.96,3.96v7.26c0,2.87,1.06,3.94,3.96,3.94h10.91v1.73h-10.35c-4.82,0-6.33-1.52-6.33-6.33v-5.96c0-4.82,1.52-6.33,6.33-6.33h10.08v1.73Z"/>
      <path class="cls-1" d="m563.27,839.75h-7.4v-1.73h16.63v1.73h-7.42v16.9h-1.81v-16.9Z"/>
      <path class="cls-1" d="m574.63,838.02h1.81v18.62h-1.81v-18.62Z"/>
      <path class="cls-1" d="m579.37,844.35c0-4.82,1.52-6.33,6.33-6.33h7.61c4.82,0,6.33,1.52,6.33,6.33v5.96c0,4.82-1.52,6.33-6.33,6.33h-7.61c-4.82,0-6.33-1.52-6.33-6.33v-5.96Zm18.47-.64c0-2.87-1.06-3.96-3.94-3.96h-8.75c-2.9,0-3.96,1.09-3.96,3.96v7.26c0,2.87,1.06,3.94,3.96,3.94h8.75c2.87,0,3.94-1.06,3.94-3.94v-7.26Z"/>
      <path class="cls-1" d="m618.93,838.02h1.81v18.62h-1.81c-1.81,0-3.46-.27-4.55-2.29l-6.07-11.2c-1.86-3.46-2.47-3.33-3.94-3.33v16.82h-1.81v-18.62h1.81c1.81,0,3.49.32,4.55,2.29l6.07,11.2c1.89,3.49,2.47,3.33,3.94,3.33v-16.82Z"/>
      <path class="cls-1" d="m638.75,839.75h-9.58c-2.9,0-3.96,1.09-3.96,2.63v1.33c0,1.54,1.06,2.61,3.96,2.61h5.14c4.36,0,5.77,1.65,5.77,5v.32c0,3.49-1.52,5-6.33,5h-10.62v-1.73h11.18c2.9,0,3.96-1.09,3.96-2.9v-1.09c0-1.81-1.06-2.87-3.96-2.87h-5.14c-4.36,0-5.77-1.65-5.77-4.74v-.56c0-3.22,1.52-4.74,6.33-4.74h9.02v1.73Z"/>
    </g>
  </g>
</svg>